#!OML:ASF F:\VICON\USERDATA\INSTALL\rory3\rory3.ASF
:FULLY-SPECIFIED
:DEGREES
3754
root 1.53954 18.6808 3.46036 -7.79417 -18.484 2.7163
lowerback 7.76286 3.12788 1.9419
upperback -0.262304 4.43629 2.02382
thorax -4.63528 2.17129 0.496208
lowerneck -9.90351 11.5143 -1.68415
upperneck -2.9521 15.4189 2.89006
head 0.319596 7.74511 1.61167
rclavicle 9.93923e-015 5.56597e-015
rhumerus -35.5152 1.89068 -64.0965
rradius 53.1185
rwrist -27.3715
rhand -20.8947 358.545
rfingers 7.12502
rthumb 5.47599 -31.3642
lclavicle 9.93923e-015 5.56597e-015
lhumerus 68.8739 33.8415 44.7519
lradius 19.8788
lwrist -11.3668
lhand -38.3323 25.8715
lfingers 7.12502
lthumb -11.3598 55.5438
rfemur -7.33968 19.6164 4.68725
rtibia 31.1272
rfoot -5.56454 -21.9264
rtoes -17.1438
lfemur 6.27384 -4.29417 -19.5564
ltibia 17.1107
lfoot -15.1593 16.6239
ltoes -6.62174
3755
root 1.54348 18.6792 3.46158 -7.82858 -18.6084 2.63554
lowerback 7.78669 3.08441 1.88132
upperback -0.271526 4.37553 2.0566
thorax -4.66554 2.14272 0.568955
lowerneck -10.0177 11.5146 -1.74202
upperneck -2.71469 15.4211 2.9255
head 0.406852 7.74858 1.65043
rclavicle 3.73715e-014 1.19271e-014
rhumerus -35.3039 2.05361 -64.1509
rradius 52.9418
rwrist -27.2348
rhand -20.8817 358.6
rfingers 7.12502
rthumb 5.48859 -31.3091
lclavicle 3.73715e-014 1.19271e-014
lhumerus 68.9845 33.1531 44.1967
lradius 20.4234
lwrist -11.2586
lhand -38.1773 25.9247
lfingers 7.12502
lthumb -11.2103 55.6052
rfemur -7.44256 19.6374 4.67722
rtibia 31.2178
rfoot -4.75848 -21.3774
rtoes -17.4965
lfemur 6.36449 -4.21095 -19.4916
ltibia 17.1302
lfoot -15.1515 16.7529
ltoes -6.69144
3756
root 1.54698 18.6798 3.46114 -7.86745 -18.7346 2.55626
lowerback 7.84249 3.02148 1.88062
upperback -0.308685 4.29384 2.03671
thorax -4.73416 2.10119 0.553884
lowerneck -9.95103 11.5318 -1.74782
upperneck -2.68436 15.4436 2.99863
head 0.398632 7.76079 1.67023
rclavicle -1.78906e-014 -3.49861e-014
rhumerus -35.1193 2.22093 -64.3191
rradius 52.7959
rwrist -26.9883
rhand -20.92 358.682
rfingers 7.12502
rthumb 5.45163 -31.2276
lclavicle -1.78906e-014 -3.49861e-014
lhumerus 69.2758 32.4603 43.8345
lradius 20.9046
lwrist -11.3075
lhand -37.8624 25.6195
lfingers 7.12502
lthumb -10.9065 55.3163
rfemur -7.51736 19.5767 4.679
rtibia 31.313
rfoot -3.94799 -20.6308
rtoes -19.3206
lfemur 6.41617 -4.12696 -19.4309
ltibia 17.2315
lfoot -15.1091 16.8498
ltoes -6.23667
3757
root 1.54894 18.6781 3.46239 -7.92861 -18.8758 2.61896
lowerback 7.87561 2.9754 1.75766
upperback -0.348514 4.22106 1.98187
thorax -4.79894 2.06688 0.57085
lowerneck -9.73075 11.5321 -1.75492
upperneck -2.88596 15.4485 2.99602
head 0.297761 7.76134 1.64486
rclavicle -3.91606e-014 -7.15625e-015
rhumerus -34.8427 2.4595 -64.491
rradius 52.6228
rwrist -26.813
rhand -21.0382 358.663
rfingers 7.12502
rthumb 5.33745 -31.2498
lclavicle -3.91606e-014 -7.15625e-015
lhumerus 69.3772 31.6815 43.2014
lradius 21.4215
lwrist -11.0448
lhand -37.7803 25.2189
lfingers 7.12502
lthumb -10.8274 54.9198
rfemur -7.59879 19.4465 4.50608
rtibia 31.4117
rfoot -3.8523 -19.9383
rtoes -19.4525
lfemur 6.34399 -4.13025 -19.5174
ltibia 17.4206
lfoot -15.216 17.0169
ltoes -5.22124
3758
root 1.54876 18.6742 3.46092 -7.90338 -19.117 2.51414
lowerback 7.84932 2.9308 1.76201
upperback -0.308625 4.16042 1.9947
thorax -4.74304 2.03758 0.591484
lowerneck -9.87671 11.4757 -1.68476
upperneck -2.78249 15.3639 2.87175
head 0.372321 7.71753 1.61128
rclavicle 8.84592e-015 3.18055e-015
rhumerus -34.4401 2.69956 -64.664
rradius 52.5613
rwrist -26.7315
rhand -21.2361 358.709
rfingers 7.12502
rthumb 5.14636 -31.2083
lclavicle 8.84592e-015 3.18055e-015
lhumerus 69.2565 30.9899 42.103
lradius 22.0077
lwrist -10.3988
lhand -37.9427 24.969
lfingers 7.12502
lthumb -10.984 54.6616
rfemur -7.80932 19.3067 4.49729
rtibia 31.5065
rfoot -4.02622 -19.3885
rtoes -18.4152
lfemur 6.22868 -4.13862 -19.4153
ltibia 17.6107
lfoot -15.3696 17.316
ltoes -4.79511
3759
root 1.54741 18.6692 3.4572 -7.83621 -19.3942 2.29834
lowerback 7.81497 2.8727 1.87332
upperback -0.248667 4.0919 2.03808
thorax -4.6565 2.00239 0.586133
lowerneck -10.1757 11.4004 -1.75705
upperneck -2.53839 15.2668 2.9387
head 0.491843 7.67291 1.67347
rclavicle 6.11263e-014 1.66979e-014
rhumerus -34.0259 2.8938 -64.8321
rradius 52.6156
rwrist -26.6293
rhand -21.3648 358.754
rfingers 7.12502
rthumb 5.02215 -31.1665
lclavicle 6.11263e-014 1.66979e-014
lhumerus 69.4584 30.4598 41.4766
lradius 22.5137
lwrist -10.2519
lhand -38.1858 24.9662
lfingers 7.12502
lthumb -11.2185 54.6463
rfemur -8.0972 19.0825 4.62675
rtibia 31.6047
rfoot -4.02894 -18.8216
rtoes -18.2521
lfemur 6.14025 -4.0174 -19.1646
ltibia 17.7686
lfoot -15.3954 17.5491
ltoes -5.1873
3760
root 1.54619 18.664 3.45905 -7.87823 -19.623 2.25344
lowerback 7.88412 2.81539 1.86293
upperback -0.255706 4.01681 2.03315
thorax -4.70307 1.96482 0.591653
lowerneck -10.3407 11.4054 -1.95161
upperneck -2.35629 15.2902 3.19782
head 0.542024 7.69197 1.80166
rclavicle 6.85807e-015 4.77083e-015
rhumerus -33.7363 3.07308 -64.9894
rradius 52.6721
rwrist -26.5442
rhand -21.5324 358.816
rfingers 7.12502
rthumb 4.86029 -31.1085
lclavicle 6.85807e-015 4.77083e-015
lhumerus 69.8447 29.882 41.2096
lradius 22.9533
lwrist -10.4751
lhand -38.1253 25.243
lfingers 7.12502
lthumb -11.1601 54.9262
rfemur -8.25629 18.771 4.59901
rtibia 31.6826
rfoot -4.03898 -18.1019
rtoes -17.9667
lfemur 6.11328 -3.85966 -19.1064
ltibia 17.9828
lfoot -15.3475 17.7638
ltoes -5.80154
3761
root 1.54343 18.6577 3.46552 -7.96048 -19.8202 2.39038
lowerback 7.89338 2.75704 1.71422
upperback -0.261737 3.92379 1.98702
thorax -4.72107 1.92178 0.636846
lowerneck -10.6668 11.4249 -2.04464
upperneck -2.05398 15.3192 3.37856
head 0.671382 7.71283 1.90992
rclavicle 1.69961e-014 1.98785e-014
rhumerus -33.3927 3.24706 -65.1506
rradius 52.7077
rwrist -26.4646
rhand -21.5543 358.854
rfingers 7.12502
rthumb 4.83917 -31.0705
lclavicle 1.69961e-014 1.98785e-014
lhumerus 70.0433 29.2601 40.556
lradius 23.4078
lwrist -10.3479
lhand -37.9927 25.4245
lfingers 7.12502
lthumb -11.0322 55.1145
rfemur -8.38508 18.4122 4.34068
rtibia 31.7536
rfoot -4.23564 -17.2757
rtoes -16.8385
lfemur 6.10768 -3.72012 -19.2406
ltibia 18.1809
lfoot -15.467 17.9112
ltoes -5.88773
3762
root 1.54008 18.6526 3.46853 -7.96886 -20.12 2.42916
lowerback 7.86378 2.73665 1.67952
upperback -0.227268 3.89026 1.96304
thorax -4.6689 1.90632 0.637734
lowerneck -11.0363 11.3304 -1.97281
upperneck -1.86213 15.1813 3.32867
head 0.809227 7.64446 1.91819
rclavicle 2.98177e-015 -7.15625e-015
rhumerus -32.9438 3.35235 -65.2936
rradius 52.7348
rwrist -26.3578
rhand -21.8271 358.89
rfingers 7.12502
rthumb 4.57576 -31.0401
lclavicle 2.98177e-015 -7.15625e-015
lhumerus 70.156 28.7018 39.5529
lradius 23.9502
lwrist -9.83927
lhand -38.0417 25.5093
lfingers 7.12502
lthumb -11.0795 55.1969
rfemur -8.63136 18.1629 4.17809
rtibia 31.8517
rfoot -4.43228 -16.4856
rtoes -15.8469
lfemur 6.11808 -3.43851 -19.232
ltibia 18.2647
lfoot -15.5406 18.0223
ltoes -5.92913
3763
root 1.53421 18.6493 3.47203 -7.96053 -20.4981 2.43638
lowerback 7.856 2.72842 1.62859
upperback -0.221938 3.87569 1.99675
thorax -4.66469 1.90076 0.703198
lowerneck -11.1497 11.2491 -1.86741
upperneck -1.74416 15.0612 3.09226
head 0.896607 7.57909 1.84208
rclavicle -2.32578e-014 1.43125e-014
rhumerus -32.5336 3.58268 -65.3881
rradius 52.8216
rwrist -26.3783
rhand -22.3483 358.846
rfingers 7.12502
rthumb 4.07246 -31.0952
lclavicle -2.32578e-014 1.43125e-014
lhumerus 70.0688 28.2039 38.2626
lradius 24.4738
lwrist -9.21659
lhand -38.4172 25.6362
lfingers 7.12502
lthumb -11.4417 55.304
rfemur -8.91828 18.0519 4.07573
rtibia 31.9651
rfoot -4.6825 -15.8043
rtoes -15.0708
lfemur 6.15784 -2.97028 -19.1407
ltibia 18.3107
lfoot -15.6239 17.9867
ltoes -6.05046
3764
root 1.5276 18.6468 3.47566 -8.02866 -20.8621 2.56837
lowerback 7.95188 2.70099 1.45676
upperback -0.237177 3.82688 2.00399
thorax -4.7461 1.88008 0.806858
lowerneck -11.2424 11.2379 -1.64328
upperneck -1.53104 15.0208 2.72684
head 1.02722 7.54948 1.71487
rclavicle -1.04362e-014 2.54444e-014
rhumerus -32.1528 3.81068 -65.5011
rradius 52.9539
rwrist -26.3704
rhand -22.5042 358.719
rfingers 7.12502
rthumb 3.92191 -31.2244
lclavicle -1.04362e-014 2.54444e-014
lhumerus 69.9919 27.6573 37.1668
lradius 24.954
lwrist -8.35873
lhand -39.2868 25.3269
lfingers 7.12502
lthumb -12.2802 54.9463
rfemur -9.18494 17.8891 3.86077
rtibia 32.0761
rfoot -4.97154 -15.1955
rtoes -15.2824
lfemur 6.26813 -2.50676 -19.1786
ltibia 18.297
lfoot -15.631 17.9574
ltoes -6.34289
3765
root 1.52025 18.6472 3.47744 -7.97839 -21.1931 2.5937
lowerback 7.93631 2.619 1.39797
upperback -0.215108 3.71192 2.02487
thorax -4.71859 1.82511 0.876236
lowerneck -11.4629 11.2644 -1.52562
upperneck -1.43087 15.0421 2.51788
head 1.12136 7.5546 1.65662
rclavicle -4.05521e-014 1.51076e-014
rhumerus -31.6362 4.05587 -65.6712
rradius 53.1401
rwrist -26.3675
rhand -22.4888 358.655
rfingers 7.12502
rthumb 3.93676 -31.2882
lclavicle -4.05521e-014 1.51076e-014
lhumerus 70.0571 27.1837 36.4145
lradius 25.4385
lwrist -7.62278
lhand -40.2813 25.0283
lfingers 7.12502
lthumb -13.239 54.5879
rfemur -9.51781 17.7037 3.75457
rtibia 32.1755
rfoot -5.21394 -14.7633
rtoes -15.8619
lfemur 6.30884 -2.15823 -19.1111
ltibia 18.199
lfoot -15.4685 18.0171
ltoes -6.69533
